<?xml version="1.0" encoding="utf-8"?>


<!-- The icon can be used freely in both personal and commercial projects with no attribution required, but always appreciated. 
You may NOT sub-license, resell, rent, redistribute or otherwise transfer the icon without express written permission from iconmonstr.com -->


<!DOCTYPE svg PUBLIC "-//W3C//DTD SVG 1.1//EN" "http://www.w3.org/Graphics/SVG/1.1/DTD/svg11.dtd">

<svg version="1.1" xmlns="http://www.w3.org/2000/svg" xmlns:xlink="http://www.w3.org/1999/xlink" x="0px" y="0px"

	 width="512px" height="512px" viewBox="0 0 512 512" enable-background="new 0 0 512 512" xml:space="preserve">

<path id="flickr-circle-outline-icon" d="M256.417,90c44.34,0,86.026,17.267,117.38,48.62c31.354,31.354,48.62,73.04,48.62,117.38

	c0,44.34-17.267,86.026-48.62,117.38c-31.354,31.353-73.04,48.62-117.38,48.62s-86.026-17.268-117.38-48.62

	c-31.354-31.354-48.62-73.04-48.62-117.38c0-44.34,17.267-86.026,48.62-117.38C170.391,107.267,212.077,90,256.417,90 M256.417,50

	c-113.771,0-206,92.229-206,206s92.229,206,206,206s206-92.229,206-206S370.188,50,256.417,50L256.417,50z M311.502,194.282

	c-24.062,0-44.904,13.768-55.086,33.854c-10.18-20.086-31.021-33.854-55.082-33.854c-34.086,0-61.719,27.631-61.719,61.719

	c0,34.085,27.633,61.718,61.719,61.718c24.061,0,44.902-13.769,55.082-33.854c10.182,20.085,31.023,33.854,55.086,33.854

	c34.084,0,61.717-27.633,61.717-61.718C373.219,221.913,345.586,194.282,311.502,194.282z M311.502,301.26

	c-24.959,0-45.264-20.303-45.264-45.259s20.305-45.26,45.264-45.26c24.953,0,45.26,20.304,45.26,45.26

	S336.455,301.26,311.502,301.26z"/>

</svg>

