<?xml version="1.0" encoding="utf-8"?>


<!-- The icon can be used freely in both personal and commercial projects with no attribution required, but always appreciated. 
You may NOT sub-license, resell, rent, redistribute or otherwise transfer the icon without express written permission from iconmonstr.com -->


<!DOCTYPE svg PUBLIC "-//W3C//DTD SVG 1.1//EN" "http://www.w3.org/Graphics/SVG/1.1/DTD/svg11.dtd">

<svg version="1.1" xmlns="http://www.w3.org/2000/svg" xmlns:xlink="http://www.w3.org/1999/xlink" x="0px" y="0px"

	 width="512px" height="512px" viewBox="0 0 512 512" enable-background="new 0 0 512 512" xml:space="preserve">

<path id="last-fm-circle-outline-icon" d="M256,90c44.34,0,86.026,17.267,117.38,48.62C404.733,169.974,422,211.66,422,256

	c0,44.34-17.267,86.026-48.62,117.38C342.026,404.732,300.34,422,256,422s-86.026-17.268-117.38-48.62

	C107.267,342.026,90,300.34,90,256c0-44.34,17.267-86.026,48.62-117.38C169.974,107.267,211.66,90,256,90 M256,50

	C142.229,50,50,142.229,50,256s92.229,206,206,206s206-92.229,206-206S369.771,50,256,50L256,50z M242.22,306.707l-8.564-23.279

	c0,0-13.916,15.521-34.785,15.521c-18.466,0-31.577-16.057-31.577-41.745c0-32.913,16.59-44.687,32.915-44.687

	c23.546,0,31.039,15.252,37.462,34.787l8.562,26.758c8.561,25.955,24.616,46.827,70.908,46.827

	c33.185,0,55.661-10.167,55.661-36.927c0-21.674-12.312-32.913-35.324-38.265l-17.125-3.746

	c-11.772-2.676-15.253-7.493-15.253-15.52c0-9.099,7.225-14.451,19.001-14.451c12.844,0,19.8,4.817,20.872,16.324l26.757-3.212

	c-2.139-24.082-18.729-33.982-46.022-33.982c-24.084,0-47.632,9.098-47.632,38.265c0,18.196,8.831,29.703,31.04,35.053l18.196,4.28

	c13.647,3.213,18.193,8.831,18.193,16.592c0,9.9-9.631,13.913-27.828,13.913c-27.024,0-38.262-14.181-44.685-33.716l-8.832-26.757

	c-11.235-34.786-29.167-47.63-64.756-47.63c-39.334,0-60.207,24.885-60.207,67.163c0,40.676,20.873,62.614,58.335,62.614

	C227.767,320.888,242.22,306.707,242.22,306.707L242.22,306.707z"/>

</svg>

